<svg xmlns="http://www.w3.org/2000/svg" width="16.397" height="16.398" viewBox="0 0 16.397 16.398"><path d="M-16229-1119.407a8.2,8.2,0,0,1,8.2-8.2,8.2,8.2,0,0,1,8.2,8.2,8.213,8.213,0,0,1-8.2,8.2A8.2,8.2,0,0,1-16229-1119.407Zm1.49,0a6.709,6.709,0,0,0,6.708,6.708,6.712,6.712,0,0,0,6.709-6.708,6.717,6.717,0,0,0-6.709-6.708A6.709,6.709,0,0,0-16227.511-1119.407Zm8.415,2.761-2.232-2.236a.726.726,0,0,1-.22-.525v-3.727a.746.746,0,0,1,.745-.745.746.746,0,0,1,.746.745v3.417l2.016,2.02a.747.747,0,0,1,.163.81.75.75,0,0,1-.688.46A.743.743,0,0,1-16219.1-1116.646Z" transform="translate(16229.001 1127.606)"/></svg>