<svg xmlns="http://www.w3.org/2000/svg" width="19" height="19" viewBox="0 0 19 19"><path d="M16.5,959.362a9.5,9.5,0,1,0,9.5,9.5A9.51,9.51,0,0,0,16.5,959.362Zm0,1.326a8.174,8.174,0,1,1-8.174,8.174A8.164,8.164,0,0,1,16.5,960.688Zm0,1.988a3.791,3.791,0,0,0-3.735,2.706.663.663,0,1,0,1.284.324A2.577,2.577,0,0,1,16.5,964a2.81,2.81,0,0,1,1.712.594,1.77,1.77,0,0,1,.718,1.395,1.915,1.915,0,0,1-.345,1.3,4.515,4.515,0,0,1-.925.746A3.966,3.966,0,0,0,16.4,969.4a5.773,5.773,0,0,0-.566,2.775.663.663,0,1,0,1.326,0,4.473,4.473,0,0,1,.407-2.147,2.533,2.533,0,0,1,.863-.9,5,5,0,0,0,1.2-1.015,3.37,3.37,0,0,0,.621-2.12,3.141,3.141,0,0,0-1.215-2.423A4.055,4.055,0,0,0,16.5,962.676Zm.007,10.6a.884.884,0,1,0,.884.884A.889.889,0,0,0,16.507,973.281Z" transform="translate(-7 -959.362)"/></svg>