<svg xmlns="http://www.w3.org/2000/svg" width="22.414" height="23.078" viewBox="0 0 22.414 23.078"><g transform="translate(-32.635 -405)"><path d="M6,0l6,11H0Z" transform="translate(50 405) rotate(90)"/><path d="M-8.783-1.41l1.289-4.277h1.3L-8.17,0H-9.393l-1.973-5.687h1.3ZM-4.408,0H-5.58V-5.687h1.172Zm1.086,0V-5.687h1.75A2.658,2.658,0,0,1-.23-5.35a2.356,2.356,0,0,1,.924.961,2.964,2.964,0,0,1,.332,1.416v.262A2.972,2.972,0,0,1,.7-1.3a2.336,2.336,0,0,1-.92.957A2.678,2.678,0,0,1-1.561,0ZM-2.15-4.738v3.8h.566A1.273,1.273,0,0,0-.533-1.391,2.03,2.03,0,0,0-.162-2.676v-.3A2.062,2.062,0,0,0-.521-4.291a1.268,1.268,0,0,0-1.051-.447ZM5.3-2.465H3.049V-.941H5.689V0H1.877V-5.687h3.8v.949H3.049v1.355H5.3Zm5.75-.25a3.433,3.433,0,0,1-.3,1.473,2.236,2.236,0,0,1-.85.977A2.35,2.35,0,0,1,8.635.078a2.366,2.366,0,0,1-1.262-.34,2.258,2.258,0,0,1-.859-.971,3.335,3.335,0,0,1-.309-1.451v-.281a3.415,3.415,0,0,1,.3-1.479,2.254,2.254,0,0,1,.855-.98,2.353,2.353,0,0,1,1.264-.342,2.353,2.353,0,0,1,1.264.342,2.254,2.254,0,0,1,.855.98,3.406,3.406,0,0,1,.3,1.475ZM9.861-2.973a2.393,2.393,0,0,0-.32-1.359A1.044,1.044,0,0,0,8.627-4.8a1.044,1.044,0,0,0-.91.459,2.366,2.366,0,0,0-.324,1.346v.277a2.423,2.423,0,0,0,.32,1.352,1.041,1.041,0,0,0,.922.48,1.032,1.032,0,0,0,.906-.463,2.409,2.409,0,0,0,.32-1.35Z" transform="translate(44 428)"/></g></svg>