<svg xmlns="http://www.w3.org/2000/svg" width="18" height="17.999" viewBox="0 0 18 17.999"><path d="M9,.008A9,9,0,0,0,5.388,17.25a7.834,7.834,0,0,1,.155-2.066c.174-.731,1.159-4.9,1.159-4.9a3.459,3.459,0,0,1-.287-1.423c0-1.334.773-2.33,1.735-2.33A1.205,1.205,0,0,1,9.364,7.877a19.385,19.385,0,0,1-.794,3.194A1.393,1.393,0,0,0,9.989,12.8c1.706,0,2.854-2.191,2.854-4.785,0-1.972-1.329-3.448-3.745-3.448a4.261,4.261,0,0,0-4.43,4.309,2.591,2.591,0,0,0,.593,1.765.437.437,0,0,1,.128.5c-.043.166-.141.564-.183.722a.31.31,0,0,1-.451.226A3.466,3.466,0,0,1,2.914,8.657c0-2.557,2.156-5.622,6.431-5.622a5.38,5.38,0,0,1,5.7,5.155c0,3.53-1.964,6.169-4.857,6.169a2.581,2.581,0,0,1-2.2-1.123s-.523,2.074-.633,2.474a7.586,7.586,0,0,1-.906,1.928A9,9,0,1,0,9,.008Z" transform="translate(0 -0.008)"/></svg>