<svg xmlns="http://www.w3.org/2000/svg" width="39.225" height="56.137" viewBox="0 0 39.225 56.137"><g transform="translate(-400.111 -1030)"><path d="M16,0,32,28H0Z" transform="translate(434 1030) rotate(90)" fill="#fff"/><path d="M-15.371-2.468l2.256-7.485h2.283L-14.3,0h-2.14l-3.452-9.953h2.276ZM-7.714,0H-9.765V-9.953h2.051Zm1.9,0V-9.953h3.063A4.651,4.651,0,0,1-.4-9.362,4.123,4.123,0,0,1,1.213-7.68,5.187,5.187,0,0,1,1.794-5.2v.458a5.2,5.2,0,0,1-.571,2.468A4.088,4.088,0,0,1-.386-.6,4.686,4.686,0,0,1-2.731,0Zm2.051-8.292v6.645h.991A2.227,2.227,0,0,0-.933-2.434,3.552,3.552,0,0,0-.284-4.683v-.526a3.609,3.609,0,0,0-.629-2.3,2.219,2.219,0,0,0-1.839-.783ZM9.273-4.313H5.335v2.666H9.957V0H3.285V-9.953H9.943v1.661H5.335V-5.92H9.273Zm10.063-.437a6.008,6.008,0,0,1-.52,2.577A3.913,3.913,0,0,1,17.329-.465a4.113,4.113,0,0,1-2.218.6A4.141,4.141,0,0,1,12.9-.458a3.951,3.951,0,0,1-1.5-1.7,5.837,5.837,0,0,1-.54-2.54v-.492a5.977,5.977,0,0,1,.53-2.587,3.945,3.945,0,0,1,1.5-1.716,4.118,4.118,0,0,1,2.211-.6,4.118,4.118,0,0,1,2.211.6,3.945,3.945,0,0,1,1.5,1.716,5.96,5.96,0,0,1,.53,2.581ZM17.257-5.2A4.188,4.188,0,0,0,16.7-7.581a1.827,1.827,0,0,0-1.6-.813,1.827,1.827,0,0,0-1.593.8,4.141,4.141,0,0,0-.567,2.355v.485A4.241,4.241,0,0,0,13.5-2.386a1.822,1.822,0,0,0,1.613.841,1.806,1.806,0,0,0,1.586-.81,4.216,4.216,0,0,0,.561-2.362Z" transform="translate(420 1086)"/></g></svg>